# xmcd
#
# Track frame offsets: 
#        150
#        29384
#        54511
#        74038
#        107930
#        134469
#        178890
#        205353
#        227722
#        260768
#        289737
#
# Disc length: 4239 seconds
#
# Revision: 0
# Processed by: cddbd v1.5.2PL0 Copyright (c) Steve Scherf et al.
# Submitted via: ExactAudioCopy v0.99pb3
#
DISCID=b4108d0b
DTITLE=Various Artist - Blues Bureau's Slow Jam Vol. 1
DYEAR=2009
DGENRE=Blues
TTITLE0=Chris Duarte - Something Wicked
TTITLE1=Rick Derringer - You've Got to Love Her With a Feeling
TTITLE2=Leslie West - Third Degree
TTITLE3=Eric Gales - Freedom From My Demons
TTITLE4=Pat Travers - Too Much is Never Enough
TTITLE5=Stoney Curtis Band - Blues Without You
TTITLE6=Schenker-Pattison Summit - Voyager
TTITLE7=Neal Schon - Blues for Miles
TTITLE8=Michael Landau - Worried Life Blues
TTITLE9=Marc Ford - Freedom Fighter
TTITLE10=Scott Henderson - That Hurts
EXTD=
EXTT0=
EXTT1=
EXTT2=
EXTT3=
EXTT4=
EXTT5=
EXTT6=
EXTT7=
EXTT8=
EXTT9=
EXTT10=
PLAYORDER=
